<mxfile host="app.diagrams.net" modified="2023-04-11T06:55:42.132Z" agent="Mozilla/5.0 (Windows NT 10.0; Win64; x64) AppleWebKit/537.36 (KHTML, like Gecko) Chrome/111.0.0.0 Safari/537.36" etag="ktU2n-hlZBYurfBI5GqT" version="21.1.5" type="device">
  <diagram name="Page-1" id="fMW34U77XS3kvZNbf75p">
    <mxGraphModel dx="1059" dy="627" grid="1" gridSize="10" guides="1" tooltips="1" connect="1" arrows="1" fold="1" page="1" pageScale="1" pageWidth="850" pageHeight="1100" math="0" shadow="0">
      <root>
        <mxCell id="0" />
        <mxCell id="1" parent="0" />
        <mxCell id="fEBj9nqrSdAIoazs6dWx-3" style="edgeStyle=orthogonalEdgeStyle;rounded=0;orthogonalLoop=1;jettySize=auto;html=1;exitX=0.5;exitY=1;exitDx=0;exitDy=0;entryX=0.5;entryY=0;entryDx=0;entryDy=0;" edge="1" parent="1" source="fEBj9nqrSdAIoazs6dWx-1" target="fEBj9nqrSdAIoazs6dWx-2">
          <mxGeometry relative="1" as="geometry" />
        </mxCell>
        <mxCell id="fEBj9nqrSdAIoazs6dWx-1" value="PRESSING CYCLE START" style="rounded=1;whiteSpace=wrap;html=1;" vertex="1" parent="1">
          <mxGeometry x="350" y="20" width="120" height="60" as="geometry" />
        </mxCell>
        <mxCell id="fEBj9nqrSdAIoazs6dWx-5" value="" style="edgeStyle=orthogonalEdgeStyle;rounded=0;orthogonalLoop=1;jettySize=auto;html=1;" edge="1" parent="1" source="fEBj9nqrSdAIoazs6dWx-2" target="fEBj9nqrSdAIoazs6dWx-4">
          <mxGeometry relative="1" as="geometry" />
        </mxCell>
        <mxCell id="fEBj9nqrSdAIoazs6dWx-2" value="PRESSING STATION HOLDING CYLINDER FORWARD" style="rounded=0;whiteSpace=wrap;html=1;" vertex="1" parent="1">
          <mxGeometry x="160" y="110" width="500" height="40" as="geometry" />
        </mxCell>
        <mxCell id="fEBj9nqrSdAIoazs6dWx-7" style="edgeStyle=orthogonalEdgeStyle;rounded=0;orthogonalLoop=1;jettySize=auto;html=1;exitX=0.5;exitY=1;exitDx=0;exitDy=0;entryX=0.5;entryY=0;entryDx=0;entryDy=0;" edge="1" parent="1" source="fEBj9nqrSdAIoazs6dWx-4" target="fEBj9nqrSdAIoazs6dWx-6">
          <mxGeometry relative="1" as="geometry" />
        </mxCell>
        <mxCell id="fEBj9nqrSdAIoazs6dWx-4" value="&amp;nbsp;HOLDING CYLINDER FORWARD FEEDBACK" style="rhombus;whiteSpace=wrap;html=1;rounded=0;" vertex="1" parent="1">
          <mxGeometry x="150" y="190" width="520" height="60" as="geometry" />
        </mxCell>
        <mxCell id="fEBj9nqrSdAIoazs6dWx-9" value="" style="edgeStyle=orthogonalEdgeStyle;rounded=0;orthogonalLoop=1;jettySize=auto;html=1;" edge="1" parent="1" source="fEBj9nqrSdAIoazs6dWx-6" target="fEBj9nqrSdAIoazs6dWx-8">
          <mxGeometry relative="1" as="geometry" />
        </mxCell>
        <mxCell id="fEBj9nqrSdAIoazs6dWx-6" value="&amp;nbsp;ROTARY CYLINDER AND PRESSING CYLINDER FORWARD&amp;nbsp;" style="rounded=0;whiteSpace=wrap;html=1;" vertex="1" parent="1">
          <mxGeometry x="150" y="280" width="520" height="40" as="geometry" />
        </mxCell>
        <mxCell id="fEBj9nqrSdAIoazs6dWx-16" style="edgeStyle=orthogonalEdgeStyle;rounded=0;orthogonalLoop=1;jettySize=auto;html=1;exitX=0.5;exitY=1;exitDx=0;exitDy=0;" edge="1" parent="1" source="fEBj9nqrSdAIoazs6dWx-8" target="fEBj9nqrSdAIoazs6dWx-12">
          <mxGeometry relative="1" as="geometry" />
        </mxCell>
        <mxCell id="fEBj9nqrSdAIoazs6dWx-8" value="&amp;nbsp;ROTARY CYLINDER AND PRESING CYLINDER FORWARD FEEDBACK" style="rhombus;whiteSpace=wrap;html=1;rounded=0;" vertex="1" parent="1">
          <mxGeometry x="150" y="360" width="520" height="60" as="geometry" />
        </mxCell>
        <mxCell id="fEBj9nqrSdAIoazs6dWx-18" value="" style="edgeStyle=orthogonalEdgeStyle;rounded=0;orthogonalLoop=1;jettySize=auto;html=1;" edge="1" parent="1" source="fEBj9nqrSdAIoazs6dWx-12" target="fEBj9nqrSdAIoazs6dWx-17">
          <mxGeometry relative="1" as="geometry" />
        </mxCell>
        <mxCell id="fEBj9nqrSdAIoazs6dWx-12" value="DELAY" style="shape=or;whiteSpace=wrap;html=1;" vertex="1" parent="1">
          <mxGeometry x="270" y="460" width="280" height="50" as="geometry" />
        </mxCell>
        <mxCell id="fEBj9nqrSdAIoazs6dWx-21" value="" style="edgeStyle=orthogonalEdgeStyle;rounded=0;orthogonalLoop=1;jettySize=auto;html=1;" edge="1" parent="1" source="fEBj9nqrSdAIoazs6dWx-17" target="fEBj9nqrSdAIoazs6dWx-20">
          <mxGeometry relative="1" as="geometry" />
        </mxCell>
        <mxCell id="fEBj9nqrSdAIoazs6dWx-17" value="ROTARY CYLINDER AND PRESSING CYLINDER REVERSE" style="whiteSpace=wrap;html=1;" vertex="1" parent="1">
          <mxGeometry x="150" y="540" width="520" height="30" as="geometry" />
        </mxCell>
        <mxCell id="fEBj9nqrSdAIoazs6dWx-24" value="" style="edgeStyle=orthogonalEdgeStyle;rounded=0;orthogonalLoop=1;jettySize=auto;html=1;" edge="1" parent="1" source="fEBj9nqrSdAIoazs6dWx-20" target="fEBj9nqrSdAIoazs6dWx-22">
          <mxGeometry relative="1" as="geometry" />
        </mxCell>
        <mxCell id="fEBj9nqrSdAIoazs6dWx-20" value="ROTARY CYLINDER AND PRESSING CYLINDER REVERSE FEEDBACK" style="rhombus;whiteSpace=wrap;html=1;" vertex="1" parent="1">
          <mxGeometry x="150" y="610" width="520" height="60" as="geometry" />
        </mxCell>
        <mxCell id="fEBj9nqrSdAIoazs6dWx-26" value="" style="edgeStyle=orthogonalEdgeStyle;rounded=0;orthogonalLoop=1;jettySize=auto;html=1;" edge="1" parent="1" source="fEBj9nqrSdAIoazs6dWx-22" target="fEBj9nqrSdAIoazs6dWx-25">
          <mxGeometry relative="1" as="geometry" />
        </mxCell>
        <mxCell id="fEBj9nqrSdAIoazs6dWx-22" value="HOLDING CYLINDER REVERSE" style="rounded=0;whiteSpace=wrap;html=1;" vertex="1" parent="1">
          <mxGeometry x="150" y="700" width="520" height="40" as="geometry" />
        </mxCell>
        <mxCell id="fEBj9nqrSdAIoazs6dWx-31" value="" style="edgeStyle=orthogonalEdgeStyle;rounded=0;orthogonalLoop=1;jettySize=auto;html=1;" edge="1" parent="1" source="fEBj9nqrSdAIoazs6dWx-25" target="fEBj9nqrSdAIoazs6dWx-29">
          <mxGeometry relative="1" as="geometry" />
        </mxCell>
        <mxCell id="fEBj9nqrSdAIoazs6dWx-25" value="HOLDING CYLINDER REVERSE FEEDBACK" style="rhombus;whiteSpace=wrap;html=1;rounded=0;" vertex="1" parent="1">
          <mxGeometry x="150" y="770" width="520" height="50" as="geometry" />
        </mxCell>
        <mxCell id="fEBj9nqrSdAIoazs6dWx-29" value="&lt;font style=&quot;font-size: 25px;&quot;&gt;END&lt;/font&gt;" style="ellipse;whiteSpace=wrap;html=1;" vertex="1" parent="1">
          <mxGeometry x="350" y="870" width="120" height="80" as="geometry" />
        </mxCell>
      </root>
    </mxGraphModel>
  </diagram>
</mxfile>
